# Blender v2.90.1 OBJ File: ''
# www.blender.org
mtllib plane.mtl
o Cube_Shallow
v 1.500000 0.010000 0.750000
v 1.500000 -0.010000 0.750000
v 1.500000 0.010000 -0.750000
v 1.500000 -0.010000 -0.750000
v -1.500000 0.010000 -0.750000
v -1.500000 -0.010000 -0.750000
v -1.500000 -0.010000 0.750000
v -1.500000 0.010000 0.750000
vn 1.0000 0.0000 0.0000
vn -0.0000 0.0000 -1.0000
vn 0.0000 -1.0000 0.0000
vn -1.0000 0.0000 0.0000
vn 0.0000 0.0000 1.0000
vn 0.0000 1.0000 0.0000
usemtl None
s 1
f 1//1 2//1 3//1
f 2//1 4//1 3//1
f 3//2 4//2 5//2
f 4//2 6//2 5//2
f 2//3 7//3 4//3
f 7//3 6//3 4//3
f 5//4 6//4 8//4
f 6//4 7//4 8//4
f 8//5 7//5 1//5
f 7//5 2//5 1//5
f 8//6 1//6 3//6
f 8//6 3//6 5//6
